<svg width="512" height="512" viewBox="0 0 512 512" fill="none" xmlns="http://www.w3.org/2000/svg">
  <rect width="512" height="512" rx="128" fill="url(#gradient)"/>
  <defs>
    <linearGradient id="gradient" x1="0" y1="0" x2="512" y2="512" gradientUnits="userSpaceOnUse">
      <stop offset="0%" stop-color="#9333ea"/>
      <stop offset="100%" stop-color="#ec4899"/>
    </linearGradient>
  </defs>
  <path d="M256 128L280 200L352 224L280 248L256 320L232 248L160 224L232 200L256 128Z" fill="white"/>
  <path d="M352 160L368 208L416 224L368 240L352 288L336 240L288 224L336 208L352 160Z" fill="white" opacity="0.8"/>
  <path d="M160 288L176 336L224 352L176 368L160 416L144 368L96 352L144 336L160 288Z" fill="white" opacity="0.8"/>
</svg>
